<svg width="1024" height="892" viewBox="0 0 1024 892" fill="none" xmlns="http://www.w3.org/2000/svg">
<path d="M78.3586 243.319C63.5309 243.319 49.9579 242.293 37.6395 240.239C25.5492 238.186 17.1089 236.133 12.3184 234.079L5.13266 230.999V145.444C14.2574 149.094 25.7774 151.034 39.6926 151.262V3.42221H157.744V175.217C157.744 198.26 151.242 215.371 138.24 226.551C125.465 237.73 105.505 243.319 78.3586 243.319Z" fill="#CCFF00"/>
<path d="M293.564 37.6444H390.4V239.897H304.171L300.75 214.915C299.837 217.425 297.784 220.505 294.59 224.155C291.397 227.805 287.975 230.885 284.325 233.395C274.288 240.011 261.057 243.319 244.633 243.319C222.277 243.319 205.396 237.159 193.99 224.839C182.813 212.519 177.224 194.724 177.224 171.453V37.6444H274.06V150.235C274.06 152.973 274.972 155.368 276.797 157.422C278.85 159.247 281.246 160.16 283.983 160.16C286.72 160.16 289.002 159.247 290.827 157.422C292.651 155.368 293.564 152.973 293.564 150.235V37.6444Z" fill="#CCFF00"/>
<path d="M502.861 34.2221C520.883 34.2221 537.079 35.2488 551.451 37.3021C566.05 39.3555 576.087 41.4088 581.562 43.4621L589.432 46.5421V132.097C573.92 124.112 550.766 120.12 519.97 120.12V128.333C548.257 131.071 567.647 135.976 578.14 143.049C588.634 150.121 593.881 163.011 593.881 181.72C593.881 200.428 586.923 215.371 573.008 226.551C559.093 237.73 534.798 243.319 500.124 243.319C481.646 243.319 465.222 242.293 450.85 240.239C436.479 238.186 426.67 236.133 421.423 234.079L413.553 230.999V156.737C419.941 159.931 429.75 162.897 442.98 165.635C456.439 168.145 470.241 169.4 484.384 169.4V161.186C459.975 158.905 441.498 153.315 428.951 144.417C416.405 135.52 410.131 121.146 410.131 101.298C410.131 81.2205 417.773 65.0221 433.057 52.7021C448.341 40.3821 471.609 34.2221 502.861 34.2221Z" fill="#CCFF00"/>
<path d="M734.454 133.124V148.524H765.25V229.288C764.109 230.429 762.17 231.798 759.433 233.395C756.924 234.764 750.194 236.817 739.244 239.555C728.295 242.065 715.634 243.319 701.263 243.319C649.024 243.319 622.904 220.505 622.904 174.875V133.124H609.559V47.911C619.368 44.9451 628.037 39.4695 635.565 31.4844C643.093 23.4992 648.225 16.3125 650.963 9.92441L655.069 0H740.955V37.6444H765.25V133.124H734.454Z" fill="#CCFF00"/>
<path d="M118.051 310.138H146.452C187.513 310.138 217.397 319.834 236.102 339.227C254.808 358.619 264.161 389.077 264.161 430.6C264.161 472.123 254.694 503.037 235.76 523.342C217.054 543.419 187.285 553.458 146.452 553.458H118.051C77.218 553.458 47.3345 543.419 28.4007 523.342C9.4669 503.037 0 472.123 0 430.6C0 389.077 9.35284 358.619 28.0585 339.227C46.9923 319.834 76.9899 310.138 118.051 310.138ZM122.499 422.729V462.427C122.499 465.393 123.298 467.788 124.895 469.613C126.72 471.438 129.001 472.351 131.738 472.351C134.704 472.351 137.099 471.438 138.924 469.613C140.977 467.788 142.004 465.393 142.004 462.427V422.729C142.004 419.991 140.977 417.71 138.924 415.884C137.099 414.059 134.704 413.147 131.738 413.147C129.001 413.147 126.72 414.059 124.895 415.884C123.298 417.71 122.499 419.991 122.499 422.729Z" fill="#CCFF00"/>
<path d="M375.978 441.551V550.035H279.142V347.782H365.028L368.45 372.765C369.362 370.255 371.416 367.175 374.609 363.525C377.803 359.874 381.225 356.794 384.874 354.285C394.912 347.668 408.257 344.36 424.909 344.36C447.265 344.36 464.031 350.52 475.209 362.84C486.615 375.16 492.318 393.07 492.318 416.569V550.035H395.482V441.551C395.482 438.813 394.455 436.532 392.402 434.707C390.577 432.653 388.296 431.627 385.559 431.627C382.821 431.627 380.54 432.653 378.715 434.707C376.89 436.532 375.978 438.813 375.978 441.551Z" fill="#CCFF00"/>
<path d="M512.049 449.422C512.049 414.516 519.919 388.279 535.66 370.711C551.628 353.144 577.633 344.36 613.676 344.36C649.719 344.36 674.812 351.661 688.955 366.262C703.098 380.864 710.17 404.819 710.17 438.129L708.459 464.48H614.018V476.115C619.721 477.484 628.048 478.169 638.997 478.169C662.265 478.169 681.085 477.142 695.456 475.089L702.642 474.062V538.4C700.817 539.54 697.852 541.023 693.746 542.849C689.868 544.446 680.401 546.613 665.345 549.351C650.289 552.089 633.522 553.458 615.045 553.458C578.546 553.458 552.198 544.788 536.002 527.449C520.034 510.109 512.049 484.101 512.049 449.422ZM608.886 434.022V447.369H628.39V434.022C628.39 431.056 627.363 428.661 625.31 426.836C623.485 425.01 621.09 424.098 618.124 424.098C615.387 424.098 613.106 425.01 611.281 426.836C609.684 428.661 608.886 431.056 608.886 434.022Z" fill="#CCFF00"/>
<path d="M5.13266 723.285V623.698H215.914V723.285H174.168V860.173H46.1939V723.285H5.13266Z" fill="#CCFF00"/>
<path d="M352.042 860.173V751.689C352.042 748.951 351.015 746.67 348.962 744.845C347.137 742.791 344.856 741.765 342.118 741.765C339.381 741.765 337.1 742.791 335.275 744.845C333.45 746.67 332.537 748.951 332.537 751.689V860.173H235.701V605.218H337.67V648.338L334.248 677.769C335.161 674.803 336.758 671.838 339.039 668.872C341.32 665.906 346.225 662.826 353.752 659.632C361.28 656.209 370.519 654.498 381.469 654.498C403.824 654.498 420.591 660.658 431.769 672.978C443.175 685.298 448.878 703.208 448.878 726.707V860.173H352.042Z" fill="#CCFF00"/>
<path d="M519.251 674.689C501.914 674.689 489.14 671.267 480.927 664.423C472.715 657.578 468.609 646.627 468.609 631.569C468.609 616.512 472.715 605.675 480.927 599.058C489.368 592.442 502.142 589.134 519.251 589.134C553.469 589.134 570.578 602.937 570.578 630.543C570.578 646.285 566.358 657.578 557.917 664.423C549.477 671.267 536.588 674.689 519.251 674.689ZM468.609 860.173V682.56H570.578V860.173H468.609Z" fill="#CCFF00"/>
<path d="M687.413 751.689V860.173H590.576V657.921H676.463L679.885 682.903C680.797 680.393 682.85 677.313 686.044 673.663C689.237 670.012 692.659 666.932 696.309 664.423C706.346 657.806 719.691 654.498 736.344 654.498C758.699 654.498 775.466 660.658 786.644 672.978C798.05 685.298 803.753 703.208 803.753 726.707V860.173H706.917V751.689C706.917 748.951 705.89 746.67 703.837 744.845C702.012 742.791 699.731 741.765 696.994 741.765C694.256 741.765 691.975 742.791 690.15 744.845C688.325 746.67 687.413 748.951 687.413 751.689Z" fill="#CCFF00"/>
<path d="M956.591 799.6H971.647C1006.55 799.6 1024 814.088 1024 843.062C1024 858.348 1018.53 870.326 1007.58 878.996C996.626 887.665 977.35 892 949.748 892H893.288C864.545 892 844.813 888.236 834.092 880.707C823.598 873.178 818.352 863.139 818.352 850.591C818.352 825.267 831.582 812.605 858.044 812.605H865.572C861.694 811.92 858.158 810.437 854.964 808.156C851.771 805.874 850.174 803.022 850.174 799.6C850.174 792.756 855.763 788.307 866.941 786.254C852.797 786.254 841.505 781.462 833.065 771.88C824.625 762.298 820.405 748.381 820.405 730.129C820.405 704.805 826.906 686.439 839.909 675.032C853.139 663.396 874.583 657.578 904.238 657.578H1022.97V753.4H1011.34C1007.69 779.181 989.44 792.071 956.591 792.071V799.6ZM938.798 823.556H901.158C898.193 823.556 895.798 824.468 893.973 826.293C892.148 827.89 891.235 830.172 891.235 833.138C891.235 835.876 892.148 838.271 893.973 840.325C895.798 842.15 898.193 843.062 901.158 843.062H938.798C941.763 843.062 944.159 842.15 945.984 840.325C947.808 838.271 948.721 835.876 948.721 833.138C948.721 830.172 947.808 827.89 945.984 826.293C944.159 824.468 941.763 823.556 938.798 823.556ZM910.055 744.16V765.378C910.055 771.766 913.249 774.96 919.636 774.96C922.373 774.96 924.655 774.048 926.479 772.222C928.533 770.397 929.559 768.116 929.559 765.378V744.16C929.559 741.194 928.533 738.799 926.479 736.974C924.655 735.148 922.259 734.236 919.294 734.236C916.556 734.236 914.275 735.148 912.45 736.974C910.853 738.799 910.055 741.194 910.055 744.16Z" fill="#CCFF00"/>
</svg>
